<?xml version="1.0" standalone="no"?>
<!DOCTYPE svg PUBLIC "-//W3C//DTD SVG 20010904//EN"
 "http://www.w3.org/TR/2001/REC-SVG-20010904/DTD/svg10.dtd">
<svg version="1.0" xmlns="http://www.w3.org/2000/svg"
 width="886.000000pt" height="886.000000pt" viewBox="0 0 886.000000 886.000000"
 preserveAspectRatio="xMidYMid meet">
<metadata>
Created by potrace 1.14, written by Peter Selinger 2001-2017
</metadata>
<g transform="translate(0.000000,886.000000) scale(0.100000,-0.100000)"
fill="#000000" stroke="none">
<path d="M0 7851 l0 -1009 30 -11 c18 -6 28 -6 25 -1 -3 5 16 0 42 -12 26 -11
58 -20 71 -20 12 1 22 -2 22 -7 0 -6 8 -10 18 -9 9 0 28 -3 42 -7 14 -4 104
-9 200 -11 147 -3 242 -7 353 -17 9 -1 17 -5 17 -10 0 -5 7 -6 16 -3 8 3 36
-4 62 -16 50 -23 112 -32 112 -17 0 5 6 9 13 9 6 0 22 -23 35 -52 18 -40 25
-49 32 -38 8 13 10 12 10 -2 0 -9 6 -18 13 -21 19 -6 48 4 41 15 -4 5 4 8 17
6 16 -2 23 -9 21 -20 -2 -12 8 -20 34 -27 32 -9 40 -8 50 7 36 50 42 55 58 49
9 -4 16 -14 16 -22 0 -20 19 -40 40 -41 8 -1 29 -4 47 -8 26 -6 32 -4 37 12 4
11 19 26 34 33 15 8 28 22 28 32 2 13 -1 15 -10 8 -17 -14 -15 22 2 42 7 7 8
17 4 22 -4 4 4 5 17 2 18 -4 21 -3 12 6 -16 16 -14 27 7 27 12 0 18 9 19 31 1
18 10 41 20 53 15 17 15 18 1 8 -11 -9 -18 -10 -23 -2 -3 5 -1 10 5 10 6 0 8
5 3 13 -4 6 -6 20 -5 30 2 9 -2 17 -8 17 -6 0 -9 4 -5 10 3 5 15 0 27 -12 15
-15 18 -23 9 -26 -8 -3 -6 -9 8 -19 16 -11 19 -18 11 -33 -7 -13 -5 -21 7 -31
9 -8 14 -9 10 -2 -9 14 2 45 13 38 5 -3 16 5 24 17 12 17 18 20 28 10 22 -22
41 -12 119 63 42 41 82 75 88 75 6 0 28 -7 48 -15 50 -21 72 -19 125 15 33 20
46 34 42 45 -4 8 -1 15 5 15 6 0 11 -5 11 -11 0 -18 121 73 208 158 70 68 82
84 74 100 -14 24 -4 67 20 93 11 11 17 26 15 33 -2 7 6 27 20 45 13 17 21 37
18 42 -3 6 -2 10 4 10 6 0 13 11 17 25 4 14 11 24 18 22 6 -2 19 0 29 5 13 7
17 5 17 -9 0 -15 2 -15 15 3 15 19 15 19 8 -1 -3 -11 -11 -26 -16 -33 -7 -9
-6 -11 7 -6 19 7 21 -7 4 -25 -11 -10 -10 -11 5 -6 9 4 17 16 17 26 0 11 7 19
18 20 14 0 14 2 -3 9 -18 7 -18 9 -3 15 19 8 21 3 -61 237 -56 160 -62 201
-32 218 53 28 62 15 143 -200 33 -90 74 -182 90 -206 l29 -43 152 2 c123 1
172 -2 259 -20 58 -12 151 -25 205 -29 85 -6 100 -4 112 10 22 26 76 45 119
42 36 -3 38 -2 23 13 -9 9 -18 13 -19 9 -6 -13 -22 2 -22 19 0 10 6 14 20 10
10 -3 25 2 31 10 11 12 8 13 -14 8 -22 -6 -27 -3 -33 19 -5 22 0 33 27 61 30
30 36 32 53 20 10 -8 15 -18 12 -23 -3 -6 1 -12 9 -16 8 -3 12 -12 9 -21 -3
-8 -2 -15 4 -15 6 0 13 6 15 13 4 9 6 9 6 0 1 -9 8 -10 26 -3 28 11 30 8 14
-23 -11 -21 -11 -21 14 2 14 12 31 20 37 16 6 -4 16 -2 23 3 7 6 24 8 38 5 20
-4 27 -11 27 -30 0 -14 6 -29 13 -34 7 -4 10 -11 6 -16 -5 -4 -17 3 -28 17
l-20 25 7 -25 c4 -14 12 -28 18 -32 8 -5 7 -8 -2 -8 -7 0 -11 -4 -7 -9 3 -5
-3 -11 -12 -14 -40 -9 86 -19 166 -13 147 10 386 71 447 112 27 19 45 24 66
20 22 -4 36 1 63 25 26 23 38 29 48 21 10 -8 34 -5 88 10 61 16 75 24 74 39
-1 10 -4 21 -7 24 -5 5 9 58 19 74 1 2 11 -6 20 -18 12 -15 24 -20 36 -16 9 4
14 11 11 16 -8 13 15 49 31 49 8 0 15 -5 15 -11 0 -5 4 -8 9 -4 5 3 13 0 17
-6 4 -8 3 -9 -4 -5 -7 4 -12 3 -12 -3 0 -15 23 -26 28 -12 3 9 7 9 18 0 11 -9
14 -9 14 0 0 8 8 10 20 6 23 -7 28 10 5 19 -8 3 -15 10 -15 16 0 7 6 6 14 -3
12 -12 29 -14 71 -7 6 1 1 5 -10 10 -19 8 -19 9 3 9 12 1 22 5 22 10 0 5 9 13
20 16 11 3 27 14 36 23 15 15 16 14 9 -8 -7 -22 -6 -23 9 -11 13 11 19 11 31
1 8 -7 15 -18 14 -24 -2 -19 13 -56 21 -51 4 2 12 -7 18 -20 7 -14 17 -25 24
-25 9 0 8 -3 -2 -10 -13 -8 -13 -10 1 -10 9 0 19 3 23 8 11 10 30 9 38 -3 4
-5 8 0 8 11 0 12 -8 25 -17 28 -13 5 -14 9 -4 19 9 9 17 5 37 -18 15 -17 30
-29 35 -28 5 2 9 -6 9 -17 0 -13 -5 -17 -14 -14 -11 4 -13 0 -9 -15 3 -12 11
-17 19 -14 8 3 14 0 14 -7 0 -6 4 -8 10 -5 5 3 12 -6 16 -20 3 -14 11 -26 18
-26 6 -1 18 -2 26 -3 8 0 30 5 49 12 33 13 33 13 27 -12 -6 -23 -2 -26 47 -40
56 -16 218 -56 229 -56 3 0 4 9 1 20 -3 11 0 26 6 34 6 7 8 27 5 45 -5 24 -3
31 9 31 11 0 15 -11 16 -42 1 -99 -6 -94 217 -168 109 -37 232 -81 273 -99 85
-36 94 -37 87 -13 -8 25 10 50 25 35 9 -9 10 -18 1 -37 -9 -20 -8 -25 5 -30 8
-4 22 -1 29 5 8 6 21 8 30 5 13 -5 14 -9 4 -21 -7 -9 -11 -16 -9 -18 2 -1 78
-39 169 -84 198 -99 348 -187 575 -338 236 -158 645 -479 645 -508 0 -7 26
-30 57 -52 67 -48 93 -82 73 -95 -15 -9 -48 11 -105 64 -33 32 -35 32 -97 25
-35 -4 -130 -12 -213 -19 -166 -12 -444 -51 -557 -76 -157 -36 -303 -101 -419
-188 -89 -67 -252 -226 -324 -316 -63 -77 -118 -176 -108 -193 3 -7 26 -38 51
-69 42 -54 47 -78 18 -78 -7 0 -39 33 -70 74 -81 106 -89 110 -205 102 -256
-18 -401 -42 -881 -146 -150 -33 -466 -132 -487 -153 -15 -15 -21 -53 -22
-137 l-1 -65 -30 34 c-17 19 -27 37 -22 40 5 3 9 21 10 39 0 17 4 42 7 53 4
12 3 20 -1 18 -5 -2 -30 -12 -56 -23 l-48 -19 30 -34 c46 -51 144 -202 184
-279 41 -82 83 -203 91 -264 l5 -45 -14 36 c-34 86 -120 229 -138 229 -6 0 -7
-8 -3 -17 4 -10 13 -49 20 -88 75 -382 78 -420 45 -509 -19 -51 -92 -147 -103
-136 -3 3 -1 28 3 55 5 28 9 73 9 100 l1 50 -47 -83 c-62 -110 -138 -193 -202
-221 -47 -20 -50 -23 -57 -67 -9 -64 1 -149 23 -186 21 -36 76 -68 133 -75 28
-4 40 -10 40 -22 -2 -87 -23 -228 -41 -277 -51 -138 -180 -290 -313 -367 -119
-69 -198 -79 -490 -63 -149 9 -156 7 -156 -42 0 -13 -3 -22 -7 -20 -183 93
-423 188 -475 188 -11 0 -18 3 -16 8 2 4 15 30 28 58 24 49 27 51 80 61 54 10
55 10 93 -24 22 -19 42 -32 45 -28 4 4 -10 20 -31 37 -37 30 -37 31 -20 51 17
18 15 18 -27 -3 -68 -35 -163 -34 -218 3 -80 52 -180 156 -199 205 -35 93 -13
247 51 356 53 91 173 126 266 77 23 -12 48 -27 54 -34 10 -10 84 -103 93 -116
2 -2 5 -2 8 1 3 3 -3 14 -12 26 -10 11 -35 41 -56 66 -117 140 -298 121 -376
-39 -64 -131 -76 -272 -32 -361 34 -69 198 -208 260 -220 l30 -6 -15 -36 c-29
-70 -32 -71 -137 -51 -50 10 -159 21 -242 24 l-150 7 -140 71 c-77 38 -158 82
-180 95 -22 14 -48 25 -57 24 -11 0 -18 6 -19 16 0 9 -6 -1 -13 -23 -28 -89
-130 -240 -146 -216 -4 7 -8 45 -9 84 -1 40 -6 102 -11 139 -8 64 -11 71 -71
138 -69 76 -142 184 -132 194 15 14 -19 4 -73 -23 -61 -30 -126 -51 -157 -51
-17 0 -17 1 1 27 11 16 30 55 43 88 22 56 24 75 25 263 2 151 -1 202 -9 199
-7 -2 -50 -17 -97 -32 -109 -36 -329 -149 -445 -227 -98 -67 -250 -194 -332
-279 -49 -52 -52 -58 -73 -154 -22 -105 -32 -127 -51 -108 -7 7 -7 33 0 87 6
43 11 91 11 107 0 27 -3 29 -27 26 -16 -2 -38 0 -50 4 -13 5 -23 5 -23 0 0 -5
-6 -9 -13 -8 -6 0 -22 -1 -35 -1 -20 -2 -21 -4 -11 -25 11 -20 11 -21 -4 -8
-14 11 -17 11 -18 0 0 -8 -2 -24 -3 -37 -2 -13 1 -25 6 -28 4 -3 6 -9 3 -14
-3 -5 -1 -20 5 -34 5 -14 6 -26 2 -26 -4 0 -7 -22 -7 -50 0 -36 4 -50 14 -50
11 0 11 -3 1 -15 -7 -8 -9 -15 -4 -15 5 0 9 -12 10 -27 1 -37 11 -94 19 -116
4 -9 2 -23 -4 -31 -6 -7 -8 -16 -4 -20 14 -13 11 -35 -6 -41 -9 -3 -25 -19
-35 -35 -13 -23 -21 -28 -30 -21 -7 6 -16 8 -20 4 -4 -4 -11 -1 -16 7 -8 13
-10 12 -10 -3 0 -10 -6 -17 -13 -16 -19 2 -57 -12 -57 -22 0 -4 -16 -6 -34 -4
-19 3 -37 1 -40 -3 -4 -7 -44 -13 -111 -16 -16 0 -36 -7 -43 -14 -7 -6 -18
-12 -25 -12 -6 0 -2 7 9 15 17 13 16 14 -14 5 -18 -5 -40 -6 -49 -3 -12 5 -14
3 -8 -7 6 -10 4 -12 -8 -7 -15 6 -17 -51 -17 -708 0 -611 2 -714 14 -709 8 3
17 1 21 -5 3 -6 0 -9 -8 -5 -8 3 -18 1 -22 -5 -3 -6 -3 -11 2 -12 4 0 23 -2
42 -5 21 -2 38 1 42 8 4 7 11 10 14 6 4 -3 -3 -16 -14 -27 -11 -11 -23 -16
-25 -12 -8 12 -56 20 -62 10 -3 -5 2 -9 10 -9 9 0 16 -4 16 -10 0 -5 8 -10 18
-11 11 -1 9 -4 -8 -9 l-25 -8 25 -2 c25 -1 25 -1 2 -10 -12 -5 -22 -17 -22
-25 0 -9 -4 -14 -9 -11 -5 4 -7 -3 -4 -15 4 -15 8 -17 14 -8 6 10 11 10 23 0
9 -8 16 -9 16 -3 0 5 12 12 26 15 19 3 24 1 20 -10 -3 -8 -1 -11 4 -8 6 3 10
21 10 40 0 19 5 37 11 41 6 3 9 17 6 30 -3 15 1 28 10 33 18 10 19 21 1 33
-10 8 -10 9 2 5 8 -2 21 -14 27 -28 10 -18 13 -20 13 -6 0 15 5 18 28 16 4 0
6 -7 4 -16 -3 -13 -1 -13 11 -2 10 10 11 16 4 21 -6 4 -8 10 -4 14 3 4 13 1
21 -5 8 -7 28 -13 45 -13 26 -1 29 -3 18 -16 -11 -13 -9 -14 11 -1 12 8 22 17
22 22 0 4 5 5 11 2 6 -4 8 -14 5 -24 -4 -9 3 -5 16 9 12 14 19 18 16 9 -4 -9
-2 -22 2 -29 6 -10 10 -7 15 13 7 27 20 36 27 18 5 -15 48 7 48 25 0 14 3 14
15 4 13 -11 14 -10 9 3 -3 9 3 24 15 36 26 26 31 26 31 1 0 -11 5 -20 11 -20
5 0 7 -5 3 -11 -5 -8 -1 -8 14 0 25 13 45 14 37 2 -6 -11 33 -26 43 -17 14 15
9 33 -8 29 -24 -6 -37 17 -16 29 9 5 13 14 10 20 -5 7 -2 8 6 3 7 -4 15 -2 20
4 4 7 15 13 24 15 10 1 22 9 27 17 7 11 9 11 9 1 0 -7 8 -21 17 -30 16 -16 16
-16 10 1 -5 12 -1 17 13 17 10 0 22 -5 25 -11 4 -6 13 -8 21 -5 18 7 19 -44 1
-63 -10 -11 -9 -13 5 -8 20 7 25 -9 6 -16 -10 -4 -10 -8 1 -15 18 -13 22 -35
11 -72 -9 -31 -23 -189 -22 -258 0 -23 -4 -44 -8 -47 -5 -3 -6 -14 -3 -25 3
-11 0 -20 -6 -20 -6 0 -11 -9 -11 -20 0 -11 -4 -20 -9 -20 -11 0 -84 -185
-102 -257 -15 -63 -2 -97 46 -117 48 -20 61 -41 45 -74 -7 -15 -14 -31 -16
-37 -10 -38 -25 -127 -30 -174 -3 -31 -9 -93 -15 -139 -5 -45 -7 -123 -3 -172
l7 -90 3583 0 3584 0 -6 128 c-3 70 -9 156 -15 192 -5 36 -18 142 -29 235 -70
582 -123 904 -193 1165 -23 88 -31 144 -18 136 6 -4 11 0 11 11 1 17 2 16 16
-2 15 -20 15 -20 30 0 12 16 18 18 34 7 12 -7 20 -8 20 -2 0 5 23 10 50 10 28
0 50 5 50 10 0 6 -4 10 -10 10 -5 0 -10 5 -10 10 0 6 19 -2 41 -16 33 -20 40
-22 36 -9 -6 14 -1 16 26 14 17 -2 37 -7 43 -11 18 -13 26 19 30 121 1 52 7
98 13 104 6 6 5 14 -4 24 -16 15 -9 46 9 40 6 -2 10 -13 8 -25 -2 -13 4 -22
15 -25 17 -4 17 -5 1 -6 -17 -1 -26 -21 -10 -21 4 0 8 -40 9 -89 1 -106 7
-127 33 -127 25 0 26 13 3 19 -11 3 -6 5 11 6 22 1 27 -3 22 -15 -3 -9 -6 -20
-6 -25 0 -4 -6 -6 -14 -3 -8 3 -17 1 -20 -4 -3 -6 16 -15 44 -21 62 -13 60
-13 60 -1 0 5 -7 7 -15 4 -8 -4 -15 -1 -15 5 0 16 21 13 43 -7 20 -16 20 -16
14 2 -7 18 -6 18 18 2 14 -9 25 -13 25 -9 0 5 4 2 9 -5 19 -31 -4 -216 -49
-382 -11 -41 -21 -95 -22 -120 -1 -52 11 -118 23 -126 5 -2 16 -20 24 -38 9
-18 25 -43 35 -54 11 -12 20 -26 20 -32 0 -5 4 -10 8 -10 16 0 40 -55 32 -75
-11 -28 0 -105 19 -128 24 -28 151 -112 191 -126 62 -21 87 -34 99 -53 8 -12
8 -18 0 -18 -5 0 -7 -5 -3 -11 3 -6 7 -37 8 -68 2 -44 8 -64 24 -81 27 -29 28
-42 2 -58 -11 -7 -20 -21 -20 -32 0 -11 -5 -20 -11 -20 -6 0 -8 9 -4 20 5 15
0 22 -19 30 -14 5 -31 18 -38 30 -7 11 -17 20 -22 20 -6 0 -5 -5 1 -11 9 -9 7
-17 -7 -32 -14 -15 -17 -25 -10 -38 12 -21 13 -60 3 -57 -18 3 -43 -16 -43
-33 0 -20 16 -26 22 -9 2 6 9 1 16 -11 11 -17 11 -20 0 -14 -7 3 -5 0 4 -8 19
-15 24 -47 8 -47 -18 0 -10 -15 14 -26 18 -8 28 -8 35 -1 8 8 11 8 11 0 0 -9
15 -10 40 -3 3 1 -4 5 -15 10 -17 7 -17 9 -3 9 24 1 36 -27 33 -73 -5 -57 -24
-94 -56 -108 -16 -7 -29 -17 -29 -23 0 -5 -4 -5 -8 2 -5 8 -14 6 -31 -8 -23
-19 -22 -19 153 -19 l176 0 0 839 c0 786 -1 841 -17 857 -17 17 -17 18 0 11
12 -5 17 -1 17 12 0 26 -305 249 -343 251 -5 0 11 -18 34 -40 24 -22 47 -40
51 -40 4 0 8 -5 8 -10 0 -10 -22 3 -150 86 -36 23 -85 52 -110 64 -25 12 -53
26 -63 31 -10 5 -22 7 -28 4 -5 -4 -8 -1 -7 6 3 15 -142 91 -219 114 -29 9
-74 18 -100 20 -26 2 -49 9 -51 14 -2 6 -12 11 -23 11 -13 0 -17 5 -12 17 6
15 4 16 -9 6 -8 -7 -18 -10 -22 -6 -4 4 -4 -1 0 -11 5 -13 -7 -31 -45 -70 -28
-29 -48 -56 -44 -61 5 -4 2 -5 -5 -1 -8 5 -21 1 -32 -9 -17 -16 -20 -16 -26
-2 -3 10 18 40 65 89 39 40 66 75 61 76 -25 9 -6 55 48 119 32 37 89 108 128
158 38 49 96 122 129 161 33 39 78 93 100 120 110 134 353 401 557 611 59 61
108 115 108 118 0 3 -9 1 -19 -5 -25 -13 -35 1 -27 36 4 15 14 24 26 24 16 0
20 7 20 33 0 18 -5 38 -11 44 -8 8 -8 13 0 17 7 5 11 67 11 184 0 118 -4 172
-10 162 -5 -8 -10 -11 -10 -7 0 5 -6 2 -13 -5 -8 -7 -40 -35 -73 -63 -32 -27
-67 -58 -77 -68 -10 -11 -34 -29 -54 -42 -43 -30 -68 -21 -135 47 -36 36 -48
56 -48 78 0 46 35 63 126 61 42 -1 79 -3 83 -5 13 -8 76 30 86 52 5 12 13 22
17 22 5 0 8 7 8 15 0 8 4 15 8 15 5 0 18 9 31 21 12 12 25 18 28 15 3 -3 12 2
19 12 11 14 13 160 14 751 0 646 -2 732 -15 721 -8 -7 -42 -13 -75 -13 -33 -1
-60 -5 -60 -9 0 -5 -4 -8 -9 -8 -5 0 -7 9 -4 20 3 11 0 20 -6 20 -6 0 -11 -9
-11 -21 0 -11 -4 -18 -10 -14 -5 3 -7 12 -3 20 3 8 0 15 -6 15 -6 0 -11 -7
-11 -15 0 -8 -3 -15 -7 -15 -5 -1 -27 -5 -51 -9 -38 -8 -70 1 -40 11 9 3 7 10
-7 24 -18 18 -19 18 -12 0 5 -13 3 -17 -7 -13 -10 4 -13 1 -10 -8 3 -8 -1 -21
-9 -30 -20 -20 -28 -19 -20 3 7 16 6 16 -11 0 -20 -21 -36 -23 -36 -5 0 8 -3
7 -10 -3 -8 -12 -10 -12 -16 3 -3 9 -15 17 -26 17 -11 0 -16 5 -13 11 4 6 1 9
-6 8 -22 -3 -50 12 -42 24 4 6 -2 8 -15 5 -12 -4 -26 0 -33 8 -7 8 -18 13 -26
10 -8 -3 -24 3 -35 14 -12 11 -24 16 -27 12 -3 -5 -17 -8 -31 -7 -14 1 -31 -3
-39 -9 -12 -9 -13 -8 -8 6 7 20 -9 25 -16 6 -3 -8 -6 -7 -6 4 -1 9 -5 20 -11
23 -6 3 -7 -1 -4 -9 3 -9 2 -16 -4 -16 -5 0 -12 10 -15 23 -4 12 -13 31 -22
42 -12 15 -10 7 5 -35 11 -30 25 -103 32 -162 l11 -108 53 -24 c61 -28 169
-96 267 -169 38 -27 96 -60 129 -72 l60 -22 -44 -15 c-23 -9 -60 -22 -81 -28
l-38 -12 -62 59 c-68 66 -126 96 -232 121 -38 9 -71 17 -73 18 -2 1 -12 34
-22 74 -29 112 -62 170 -143 247 -116 110 -286 207 -506 290 -47 18 -67 29
-54 31 19 3 81 -17 204 -64 52 -19 79 -14 79 15 0 27 -65 70 -203 137 -66 31
-102 53 -89 54 31 0 76 24 99 52 18 23 80 60 120 72 16 5 35 -5 80 -42 100
-84 278 -267 278 -287 0 -11 115 -240 115 -229 0 17 -24 84 -30 84 -4 0 -17
24 -30 53 -13 28 -31 61 -40 72 -15 20 -15 20 6 2 12 -10 29 -36 39 -57 10
-22 20 -39 22 -37 6 7 -27 91 -45 111 -9 11 -12 16 -5 13 6 -4 15 -2 19 5 4 7
3 10 -1 5 -5 -4 -18 1 -29 10 -20 17 -20 17 -7 1 7 -10 9 -18 3 -18 -11 0
-102 101 -115 129 -7 13 -6 13 6 -1 8 -10 18 -14 22 -10 5 4 4 1 0 -7 -6 -11
-4 -13 8 -8 10 3 17 2 17 -4 0 -6 5 -7 11 -3 8 4 8 8 0 13 -12 7 -3 51 10 51
5 0 5 -7 2 -17 -4 -11 -3 -14 5 -9 17 10 15 27 -6 42 -15 12 -13 13 12 4 26
-10 28 -9 23 10 -3 11 0 26 7 33 7 7 11 17 9 24 -2 6 8 23 22 37 20 20 24 31
19 52 -5 18 -3 25 3 21 6 -4 14 0 17 9 3 8 2 12 -4 9 -15 -9 -12 5 5 21 13 14
15 14 15 0 0 -9 3 -15 8 -15 18 3 33 -2 28 -9 -2 -4 0 -14 6 -22 8 -12 9 -12
4 3 -7 23 -1 22 38 -8 75 -57 100 -11 39 73 -13 19 -14 23 -2 21 8 -2 32 15
54 38 57 58 126 97 235 133 30 10 69 18 85 19 114 4 244 20 303 37 l52 15 0
1125 0 1124 -3810 0 c-3808 0 -3811 0 -3800 -20 6 -11 16 -20 21 -20 6 0 9 -7
5 -15 -3 -8 0 -15 5 -15 6 0 9 -9 6 -20 -3 -13 2 -25 16 -35 12 -8 16 -15 9
-15 -8 0 -11 -7 -8 -17 15 -51 5 -183 -18 -218 -7 -11 -16 -32 -19 -46 -11
-45 -113 -139 -151 -139 -9 0 -16 -4 -16 -8 0 -4 -16 -15 -35 -24 -19 -8 -32
-11 -29 -7 7 11 -3 11 -44 0 -21 -6 -32 -6 -32 0 0 6 -9 7 -21 4 -15 -5 -19
-4 -15 4 4 6 3 11 -3 11 -5 0 -11 -5 -13 -10 -2 -6 -30 3 -66 20 -68 34 -159
119 -168 156 -3 13 -10 24 -14 24 -9 0 -28 116 -28 168 0 17 5 32 12 32 6 0 4
5 -4 10 -10 6 -11 10 -2 10 6 0 12 10 12 23 0 12 7 31 15 41 8 11 15 27 15 37
0 9 6 19 14 22 8 3 20 15 26 26 l11 21 -366 0 -365 0 0 -1009z m2506 567 c-1
-13 -10 -24 -19 -26 -18 -4 -21 6 -11 32 10 25 34 20 30 -6z m61 -204 c8 -21
-29 -56 -49 -49 -25 10 -30 35 -13 62 13 19 19 22 36 13 11 -6 23 -18 26 -26z
m308 -4 c8 -26 -1 -40 -26 -40 -25 0 -35 25 -19 45 17 21 37 19 45 -5z m2357
-156 c7 -7 -24 -64 -34 -64 -11 0 -10 28 2 51 11 19 22 24 32 13z m958 -9 c-7
-9 -15 -13 -17 -11 -7 7 7 26 19 26 6 0 6 -6 -2 -15z m-1320 -45 c0 -5 -5 -10
-11 -10 -5 0 -7 5 -4 10 3 6 8 10 11 10 2 0 4 -4 4 -10z m580 -54 c0 -3 -4 -8
-10 -11 -5 -3 -10 -1 -10 4 0 6 5 11 10 11 6 0 10 -2 10 -4z m770 -6 c0 -5 -7
-10 -16 -10 -8 0 -12 5 -9 10 3 6 10 10 16 10 5 0 9 -4 9 -10z m-2512 -31 c5
-24 -27 -52 -43 -39 -14 12 -14 27 -1 48 11 17 40 11 44 -9z m2534 -21 c-7 -7
-12 -8 -12 -2 0 14 12 26 19 19 2 -3 -1 -11 -7 -17z m-2992 -8 c0 -5 -4 -10
-10 -10 -5 0 -10 5 -10 10 0 6 5 10 10 10 6 0 10 -4 10 -10z m2425 -10 c-3 -5
-10 -10 -16 -10 -5 0 -9 5 -9 10 0 6 7 10 16 10 8 0 12 -4 9 -10z m-2190 -50
c15 -47 -25 -81 -54 -46 -19 22 6 61 41 65 4 1 10 -8 13 -19z m2185 10 c0 -5
-4 -10 -10 -10 -5 0 -10 5 -10 10 0 6 5 10 10 10 6 0 10 -4 10 -10z m-1826
-15 c-6 -16 -24 -21 -24 -7 0 11 11 22 21 22 5 0 6 -7 3 -15z m886 -49 c0 -18
-17 -29 -30 -21 -8 5 -7 11 1 21 15 18 29 18 29 0z m1540 4 c0 -5 -4 -10 -10
-10 -5 0 -10 5 -10 10 0 6 5 10 10 10 6 0 10 -4 10 -10z m-2390 -36 c0 -8 -10
-15 -22 -15 -21 -1 -21 -2 -3 -6 27 -7 39 -19 26 -27 -6 -4 -11 -3 -11 2 0 5
-9 12 -20 15 -20 5 -23 28 -6 55 9 16 36 -2 36 -24z m2380 6 c0 -5 -2 -10 -4
-10 -3 0 -8 5 -11 10 -3 6 -1 10 4 10 6 0 11 -4 11 -10z m-2920 -16 c0 -9 -5
-14 -12 -12 -18 6 -21 28 -4 28 9 0 16 -7 16 -16z m2900 -3 c0 -6 -4 -13 -10
-16 -5 -3 -10 1 -10 9 0 9 5 16 10 16 6 0 10 -4 10 -9z m-3630 -100 c7 -15 7
-22 -2 -27 -7 -4 -10 -4 -6 1 4 4 3 16 -3 26 -5 11 -7 19 -5 19 3 0 10 -9 16
-19z m465 -12 c-7 -11 -55 -12 -55 -1 0 4 5 13 12 20 13 13 52 -3 43 -19z
m293 4 c-4 -22 -22 -20 -26 1 -2 10 3 16 13 16 10 0 15 -7 13 -17z m622 -32
c0 -6 -4 -13 -10 -16 -5 -3 -10 1 -10 9 0 9 5 16 10 16 6 0 10 -4 10 -9z
m2595 -11 c-3 -5 -10 -10 -16 -10 -5 0 -9 5 -9 10 0 6 7 10 16 10 8 0 12 -4 9
-10z m433 -63 c5 -39 -23 -70 -49 -56 -11 5 -19 19 -19 29 0 58 62 82 68 27z
m-4886 -189 c7 -19 -2 -38 -17 -38 -21 0 -28 19 -15 35 15 18 26 19 32 3z m-6
-133 c4 -9 1 -29 -6 -46 -10 -24 -18 -29 -39 -27 -34 4 -39 33 -10 64 26 27
47 31 55 9z m5634 -184 c0 -12 -20 -25 -27 -18 -7 7 6 27 18 27 5 0 9 -4 9 -9z
m-6948 -128 c-7 -36 -30 -11 -24 27 4 27 6 29 17 14 6 -9 10 -27 7 -41z m6818
47 c0 -5 -2 -10 -4 -10 -3 0 -8 5 -11 10 -3 6 -1 10 4 10 6 0 11 -4 11 -10z
m10 -50 c0 -11 -7 -20 -15 -20 -8 0 -15 9 -15 20 0 11 7 20 15 20 8 0 15 -9
15 -20z m394 5 c9 -24 -4 -45 -29 -45 -29 0 -38 13 -30 40 8 24 50 27 59 5z
m-6699 -74 c7 -12 -12 -24 -25 -16 -11 7 -4 25 10 25 5 0 11 -4 15 -9z m2 -75
c-4 -9 -11 -16 -17 -16 -11 0 -14 33 -3 43 11 11 26 -10 20 -27z m203 0 c0 -2
-7 -7 -16 -10 -8 -3 -12 -2 -9 4 6 10 25 14 25 6z m-195 -76 c3 -5 1 -10 -4
-10 -6 0 -11 5 -11 10 0 6 2 10 4 10 3 0 8 -4 11 -10z m122 -76 c-3 -3 -12 -4
-19 -1 -8 3 -5 6 6 6 11 1 17 -2 13 -5z m6501 -322 c2 -7 -3 -12 -10 -12 -8 0
-15 7 -15 15 0 18 19 15 25 -3z m-1039 -937 c35 -17 43 -37 31 -69 -11 -31
-39 -46 -84 -46 -25 0 -38 6 -46 19 -18 34 -12 68 16 90 32 25 46 26 83 6z
m1339 -60 c10 -10 -75 5 -122 21 -21 8 -41 12 -44 10 -2 -3 6 -22 18 -42 l23
-37 -26 18 c-14 9 -29 27 -32 38 -4 12 -9 29 -11 39 -4 14 9 12 91 -12 53 -16
100 -31 103 -35z m-3603 -52 c9 -24 2 -24 -23 2 -21 21 -21 23 -3 18 11 -3 22
-12 26 -20z m803 -417 c32 -32 89 -82 127 -111 81 -61 109 -90 101 -104 -4 -5
-2 -12 4 -16 6 -4 22 -30 36 -58 35 -69 119 -182 217 -289 83 -92 118 -116 69
-49 -16 22 -36 59 -45 83 -18 48 -58 210 -53 215 2 2 23 -22 46 -52 58 -75
173 -182 255 -236 l67 -44 -6 -44 c-3 -25 -15 -59 -26 -78 -28 -48 -5 -41 52
16 l49 49 20 -31 c31 -52 52 -126 46 -167 -5 -37 -4 -38 19 -30 45 18 81 39
132 79 28 23 54 41 57 41 3 0 2 -12 -1 -26 -6 -22 -4 -25 9 -18 35 21 118 108
137 144 23 46 106 120 152 137 66 24 180 10 162 -19 -5 -7 -2 -8 5 -4 15 10
53 -23 44 -37 -3 -5 -1 -7 5 -3 16 9 71 -66 95 -131 65 -177 -15 -343 -210
-440 -66 -33 -85 -37 -154 -38 l-79 -2 -74 -84 c-41 -46 -73 -86 -70 -88 2 -2
12 3 21 11 17 15 19 13 34 -18 9 -19 14 -36 10 -38 -3 -2 -33 -11 -66 -20
-154 -44 -319 -116 -409 -179 -20 -14 -31 -17 -34 -9 -2 6 -11 21 -21 33 l-17
21 -114 -26 c-178 -40 -299 -52 -366 -37 -80 18 -238 127 -342 236 -98 101
-133 167 -161 303 l-19 93 57 37 c63 42 104 107 95 151 -13 65 -29 119 -46
160 -17 41 -17 43 -1 36 69 -28 132 -45 165 -45 59 0 45 16 -20 23 -59 6 -126
29 -137 47 -3 5 0 7 9 4 10 -4 20 5 31 25 18 36 21 38 21 12 0 -11 -4 -17 -8
-15 -4 3 -8 1 -8 -4 0 -15 42 -22 59 -11 14 9 14 10 -1 5 -16 -5 -34 21 -23
32 3 3 5 0 5 -6 0 -7 5 -12 11 -12 5 0 7 5 4 10 -3 6 -4 10 -1 10 10 0 35 -58
28 -65 -4 -5 -1 -5 7 0 9 5 19 2 28 -10 28 -39 11 -4 -32 67 -36 58 -95 204
-95 235 0 3 29 -22 65 -56 41 -38 74 -61 88 -60 l22 0 -22 9 c-11 5 -33 28
-47 52 -31 51 -80 203 -72 224 4 10 25 14 84 14 92 0 177 -20 232 -55 48 -31
52 -20 8 21 -75 70 -164 99 -274 91 l-71 -5 -7 92 c-4 51 -4 122 0 159 l7 66
39 -57 c22 -31 65 -83 96 -116z m2955 -136 c34 -23 79 -46 100 -52 20 -6 37
-14 36 -17 0 -3 -16 -19 -36 -36 l-36 -29 -68 72 c-59 61 -84 102 -64 102 3 0
34 -18 68 -40z m77 -244 c0 -2 -6 -9 -14 -15 -11 -9 -16 -9 -22 0 -4 7 -3 9 4
5 6 -3 13 -2 17 4 6 10 15 14 15 6z m198 -665 c-6 -57 -20 -75 -73 -90 -32 -9
-40 -8 -52 7 -38 49 19 132 90 132 l40 0 -5 -49z m-254 -163 c-5 -8 -2 -9 10
-5 14 6 16 3 11 -14 -5 -15 -4 -19 4 -15 15 10 14 -7 -1 -22 -9 -9 -9 -12 1
-12 7 0 9 -4 6 -10 -3 -5 0 -7 8 -4 23 9 30 -14 8 -26 -13 -7 -28 -36 -41 -83
-12 -39 -30 -87 -41 -104 -16 -30 -17 -33 -2 -33 14 0 13 -4 -5 -20 -23 -21
-30 -36 -12 -25 14 9 12 -7 -5 -29 -8 -10 -12 -23 -9 -28 3 -5 0 -7 -7 -6 -7
2 -14 -3 -15 -9 -1 -7 -2 -16 -3 -20 0 -4 -8 2 -17 13 -8 10 -12 12 -8 4 5
-12 4 -12 -6 -3 -15 14 -5 34 14 27 8 -3 16 -1 20 4 8 13 -30 8 -48 -7 -35
-29 -70 19 -74 102 -2 24 -5 27 -24 22 -18 -5 -20 -4 -8 4 12 9 13 13 2 20
-11 7 -11 9 2 14 9 4 16 12 16 19 0 9 -3 8 -10 -2 -8 -13 -10 -12 -11 5 -1 11
-1 26 0 33 1 6 -3 12 -9 12 -6 0 -8 5 -5 10 4 6 11 8 16 5 10 -7 13 5 10 48
-1 17 4 27 13 27 9 0 12 7 9 19 -3 14 3 21 26 29 17 6 31 16 31 21 0 6 7 11
15 11 8 0 15 5 15 11 0 6 7 9 15 5 8 -3 15 -1 15 3 0 5 8 7 18 5 9 -2 31 0 47
5 17 5 31 10 33 10 2 1 0 -4 -4 -11z m89 -32 c3 -8 3 -17 0 -20 -9 -9 -34 15
-27 25 8 13 21 11 27 -5z m-7440 -42 c14 -47 14 -49 15 -59 0 -5 10 -12 21
-17 12 -4 26 -19 31 -33 5 -14 16 -28 25 -31 8 -3 12 -10 9 -16 -3 -5 2 -8 12
-6 11 2 18 -2 17 -8 -6 -30 72 -25 221 15 120 32 216 26 216 -14 0 -20 -45
-48 -140 -84 -47 -19 -137 -58 -201 -87 -64 -30 -123 -52 -131 -49 -10 4 -14
16 -12 36 2 16 -1 29 -7 29 -6 0 -6 8 2 22 10 18 9 20 -6 14 -13 -5 -16 -2
-11 9 3 10 2 13 -5 10 -5 -4 -7 -15 -4 -26 4 -11 2 -19 -4 -19 -6 0 -11 4 -11
9 0 5 -14 7 -32 6 -26 -2 -39 4 -63 31 -30 33 -54 46 -39 22 4 -6 3 -8 -3 -5
-5 3 -18 24 -29 46 -10 23 -27 43 -36 46 -10 4 -15 14 -13 26 2 12 -2 38 -9
59 -11 34 -11 40 2 45 8 3 17 3 20 0 3 -3 -1 -5 -9 -5 -10 -1 -9 -4 4 -11 9
-6 27 -7 38 -4 15 5 19 4 14 -5 -5 -7 -19 -10 -39 -6 -22 4 -27 3 -16 -4 8 -5
25 -10 37 -10 12 0 28 -7 37 -15 8 -8 18 -15 23 -15 4 1 -3 10 -16 20 -30 26
-21 25 24 -1 20 -12 38 -19 41 -16 3 3 -4 8 -15 12 -28 9 -27 28 2 20 19 -5
20 -5 4 5 -14 9 -15 13 -4 24 7 8 12 28 11 45 -3 40 16 36 29 -5z m7667 -32
c0 -4 -14 -27 -31 -50 -29 -39 -69 -57 -69 -30 0 16 30 48 46 48 7 0 18 9 24
20 11 20 30 28 30 12z m-1678 -84 c-19 -9 -21 -16 -16 -45 4 -21 2 -33 -5 -33
-6 0 -11 -9 -11 -20 0 -11 5 -20 12 -20 9 0 9 -3 0 -12 -18 -18 -45 9 -32 32
16 30 12 42 -11 35 -14 -5 -19 -3 -15 3 3 6 3 12 -1 15 -5 2 -2 2 5 1 6 -2 12
1 12 6 0 6 -5 10 -12 10 -20 0 2 15 40 26 47 15 63 16 34 2z m-176 -141 c31
-45 58 -87 61 -93 2 -6 -21 -16 -54 -24 -83 -18 -320 -100 -448 -155 -264
-113 -441 -210 -602 -331 -40 -30 -73 -52 -73 -49 0 3 16 37 35 75 43 86 234
287 353 373 150 108 373 207 570 252 80 19 86 23 70 43 -12 13 -10 14 9 4 12
-7 47 -49 79 -95z m1713 57 c-18 -19 -34 -32 -37 -30 -6 7 27 64 40 69 29 10
28 -7 -3 -39z m-1554 -113 c3 -5 2 -12 -3 -15 -5 -3 -9 1 -9 9 0 17 3 19 12 6z
m32 -8 c-4 -3 1 -16 10 -27 18 -21 18 -21 -4 -2 -20 16 -23 36 -6 36 4 0 3 -3
0 -7z m-15 -40 c8 -10 22 -31 32 -48 l17 -30 -21 25 c-11 14 -29 35 -39 48
-11 12 -16 22 -12 22 4 0 15 -8 23 -17z m848 -14 c15 -26 6 -49 -18 -49 -30 0
-46 24 -32 49 14 27 36 27 50 0z m-5252 0 c53 -1 89 -3 79 -6 -9 -2 -15 -8
-12 -13 3 -4 -6 -7 -20 -6 -13 2 -22 -1 -19 -6 4 -5 -2 -9 -12 -7 -24 3 -73
-17 -98 -39 -29 -27 -46 -68 -48 -116 l-2 -44 -87 -4 c-72 -3 -93 -8 -123 -29
-47 -32 -71 -81 -70 -147 0 -48 -2 -53 -25 -58 -32 -7 -140 -40 -163 -49 -12
-5 2 32 47 124 73 148 156 281 207 334 34 35 35 35 203 70 11 3 26 3 33 1 8
-2 57 -5 110 -5z m5607 -9 c3 -5 1 -10 -4 -10 -6 0 -11 5 -11 10 0 6 2 10 4
10 3 0 8 -4 11 -10z m45 -30 c0 -5 -2 -10 -4 -10 -3 0 -8 5 -11 10 -3 6 -1 10
4 10 6 0 11 -4 11 -10z m-4002 -67 c31 -88 239 -685 288 -830 55 -160 61 -172
81 -167 27 7 36 -9 97 -186 60 -172 87 -270 75 -270 -5 0 -9 -7 -9 -16 0 -9 7
-14 18 -13 9 2 34 0 54 -4 31 -7 40 -15 62 -59 14 -29 26 -66 26 -82 1 -29 1
-30 15 -12 27 36 -7 105 -76 156 -44 32 -37 40 34 40 48 0 56 -4 81 -44 14
-22 16 -38 11 -74 -5 -32 -9 -41 -16 -31 -12 20 -11 -3 2 -38 5 -15 21 -39 34
-53 49 -51 34 -151 -31 -212 -13 -13 -24 -26 -24 -30 0 -18 20 -5 63 37 26 25
48 45 49 45 9 0 3 -46 -6 -52 -7 -5 -6 -8 2 -8 8 0 10 -5 5 -12 -4 -7 -9 -31
-10 -52 -3 -39 -44 -116 -62 -116 -5 0 -8 -8 -7 -17 0 -9 -14 -27 -33 -40 -32
-22 -35 -22 -47 -5 -7 9 -16 14 -20 9 -4 -4 -2 -7 4 -7 7 0 12 -7 12 -16 0
-14 -3 -14 -15 -4 -9 7 -18 10 -22 6 -3 -3 -1 -6 5 -6 7 0 12 -4 12 -9 0 -6
-36 -9 -84 -7 -102 3 -130 18 -147 78 -7 24 -15 48 -19 53 -4 6 -35 99 -70
208 -58 181 -62 201 -52 231 7 19 10 40 7 48 -4 11 8 22 39 37 25 11 51 21 57
21 8 0 6 6 -3 18 -9 9 -49 109 -89 221 -71 201 -72 204 -53 220 20 16 19 18
-26 143 -26 70 -62 175 -81 232 -19 58 -37 106 -40 106 -4 0 -10 -12 -14 -27
-11 -49 -55 -112 -87 -129 -70 -36 -167 20 -277 161 -92 119 -106 141 -60 99
29 -27 42 -31 88 -32 73 -1 232 -21 292 -36 27 -7 49 -10 49 -6 0 4 -40 122
-90 261 -49 139 -88 254 -87 255 10 8 73 44 79 44 3 0 10 -12 16 -27z m3712
-3 c0 -5 -4 -10 -10 -10 -5 0 -10 5 -10 10 0 6 5 10 10 10 6 0 10 -4 10 -10z
m75 -70 c0 -7 -6 -15 -12 -17 -8 -3 -13 4 -13 17 0 13 5 20 13 18 6 -3 12 -11
12 -18z m-6125 -45 c0 -8 -4 -15 -9 -15 -13 0 -22 16 -14 24 11 11 23 6 23 -9z
m-543 -60 c21 -21 1 -44 -32 -37 -27 5 -32 21 -13 40 16 16 26 15 45 -3z m381
-48 c-4 -29 -32 -44 -52 -28 -22 19 -21 78 2 84 22 5 54 -30 50 -56z m6268 18
c3 -30 0 -35 -17 -35 -12 0 -23 -8 -26 -19 -5 -18 -33 -38 -33 -24 0 32 57
129 69 118 2 -3 5 -20 7 -40z m-346 25 c0 -5 -4 -10 -10 -10 -5 0 -10 5 -10
10 0 6 5 10 10 10 6 0 10 -4 10 -10z m-7377 -108 c-3 -12 -9 -22 -14 -22 -12
0 -11 7 2 32 13 25 20 19 12 -10z m64 -4 c-3 -7 -5 -2 -5 12 0 14 2 19 5 13 2
-7 2 -19 0 -25z m7665 -3 c-15 -17 -28 -28 -30 -23 -5 11 30 55 45 55 6 0 0
-14 -15 -32z m-7692 6 c0 -5 -6 -14 -14 -20 -12 -10 -13 -8 -9 8 5 21 23 30
23 12z m-113 -23 c-3 -8 -6 -5 -6 6 -1 11 2 17 5 13 3 -3 4 -12 1 -19z m61
-20 c18 -21 7 -24 -14 -4 -8 8 -14 23 -13 33 0 14 2 15 6 3 3 -8 12 -23 21
-32z m112 22 c0 -5 -4 -10 -10 -10 -5 0 -10 5 -10 10 0 6 5 10 10 10 6 0 10
-4 10 -10z m20 -15 c0 -11 -11 -15 -42 -14 -32 0 -38 2 -23 8 11 5 25 6 31 4
7 -2 15 0 19 6 9 15 15 14 15 -4z m5286 -37 c-9 -13 -19 -30 -23 -38 -4 -8
-30 -53 -58 -100 -29 -47 -69 -116 -90 -153 -29 -53 -42 -68 -56 -64 -10 3
-16 0 -13 -7 2 -6 0 -17 -5 -25 -7 -10 -13 -11 -30 -2 -17 9 -20 9 -15 -3 3
-8 1 -17 -5 -21 -6 -3 -11 0 -11 7 0 7 -9 19 -20 25 -16 11 -18 10 -14 -2 11
-27 -20 -7 -38 25 -9 17 -23 30 -30 30 -8 -1 -5 -6 6 -15 11 -8 17 -18 13 -21
-9 -10 -34 19 -34 39 0 12 6 16 16 12 9 -3 7 3 -6 14 -20 16 -21 20 -6 25 14
6 14 9 -3 28 -19 21 -19 21 6 8 17 -8 11 1 -20 31 -25 24 -55 58 -68 76 l-23
32 58 29 c120 60 247 90 387 91 l98 1 -16 -22z m-5276 -40 c8 -29 15 -73 17
-98 4 -66 8 -81 24 -91 10 -7 11 -11 2 -17 -17 -11 -19 -97 -3 -116 11 -14 10
-16 -6 -10 -18 7 -18 6 1 -16 17 -20 18 -23 3 -17 -20 7 -25 -8 -5 -17 10 -5
10 -7 0 -12 -7 -3 -13 -12 -13 -20 0 -8 -5 -14 -10 -14 -13 0 -30 41 -22 54 3
5 0 6 -6 2 -5 -3 -12 0 -15 6 -2 7 -8 9 -13 5 -5 -4 -4 -11 2 -15 6 -4 13 -18
17 -30 5 -21 3 -23 -16 -17 -12 3 -29 8 -37 10 -8 2 -16 4 -18 4 -1 1 3 11 9
24 11 19 10 21 -3 9 -14 -11 -16 -7 -20 28 -2 23 0 44 5 47 5 3 6 12 3 22 -5
12 -2 11 9 -3 10 -13 18 -17 25 -10 7 7 4 17 -8 30 -16 17 -17 22 -4 33 12 12
16 12 23 0 6 -9 9 6 9 43 0 47 -3 56 -15 52 -8 -4 -15 -1 -15 5 0 6 7 11 16
11 10 0 14 6 11 14 -3 7 0 19 6 25 8 8 8 11 0 11 -6 0 -13 7 -16 14 -4 10 -1
13 9 9 15 -6 20 12 5 22 -5 3 -7 17 -5 32 3 15 0 30 -8 34 -8 6 -2 9 18 9 28
0 31 -4 44 -52z m2065 42 c-4 -6 -11 -8 -16 -5 -5 4 -9 1 -9 -4 0 -14 6 -14
39 3 23 12 28 12 28 1 0 -7 -7 -11 -15 -7 -11 4 -13 1 -7 -8 6 -10 4 -12 -8
-7 -10 3 -17 3 -17 -1 0 -8 -52 -23 -151 -42 -31 -6 -64 -19 -73 -29 -17 -19
-39 -114 -25 -105 5 3 9 0 9 -6 0 -7 9 -23 20 -37 11 -15 18 -29 15 -32 -4 -3
-9 -1 -13 4 -8 12 -32 26 -139 80 -77 39 -81 43 -65 58 33 30 167 86 257 107
50 12 101 25 115 30 36 12 62 12 55 0z m-2323 -22 c-7 -7 -12 -8 -12 -2 0 14
12 26 19 19 2 -3 -1 -11 -7 -17z m58 18 c0 -3 -4 -8 -10 -11 -5 -3 -10 -1 -10
4 0 6 5 11 10 11 6 0 10 -2 10 -4z m646 -7 c8 -6 14 -30 14 -53 0 -70 -33 -85
-86 -38 -43 37 -49 60 -23 81 25 20 76 26 95 10z m6704 -69 c0 -5 -7 -10 -15
-10 -8 0 -15 5 -15 10 0 6 7 10 15 10 8 0 15 -4 15 -10z m-6004 -24 c22 -7 73
-29 114 -48 41 -19 109 -50 150 -68 41 -19 92 -44 112 -57 21 -13 40 -23 43
-23 2 0 33 -13 67 -29 35 -15 74 -32 88 -36 40 -13 253 -122 340 -175 l80 -48
-26 -21 c-15 -12 -31 -21 -37 -21 -15 0 -147 -141 -147 -157 0 -19 -13 -16
-26 5 -6 10 -41 33 -76 51 -54 27 -72 43 -106 94 -53 80 -150 180 -212 218
-27 17 -52 30 -56 29 -4 -1 -10 2 -13 7 -9 13 -91 44 -91 35 0 -5 25 -19 55
-31 32 -14 52 -27 48 -34 -3 -6 -1 -7 6 -3 13 8 91 -46 137 -96 17 -18 55 -69
84 -113 29 -44 57 -82 62 -83 5 -2 4 -10 -3 -18 -9 -11 -15 -11 -25 -3 -8 6
-14 16 -14 22 0 5 -23 40 -50 77 -112 151 -248 239 -309 201 -13 -8 -12 -23 3
-81 3 -8 5 -18 5 -22 1 -4 16 -24 34 -45 29 -34 29 -36 6 -21 -22 14 -133 51
-193 64 -12 3 -64 7 -116 9 -52 3 -112 7 -132 10 -23 3 -38 1 -38 -5 0 -5 19
-11 43 -11 23 -1 49 -3 57 -4 8 -1 27 -3 43 -4 25 -1 27 -4 27 -43 0 -23 7
-49 15 -58 13 -15 9 -20 -45 -56 -40 -26 -69 -56 -92 -92 -42 -68 -158 -193
-171 -185 -6 4 -7 1 -3 -6 5 -7 1 -20 -7 -29 -8 -9 -19 -32 -25 -50 -16 -47
-111 -188 -171 -252 -28 -30 -51 -58 -51 -62 0 -5 -7 -8 -15 -8 -8 0 -15 -4
-15 -10 0 -5 -17 -25 -37 -44 -26 -23 -40 -31 -45 -23 -6 9 -8 9 -8 0 0 -7 -3
-13 -7 -13 -13 0 -12 54 0 62 9 6 9 13 -1 28 -7 11 -9 26 -5 33 4 7 6 20 5 30
-6 32 99 400 119 422 5 5 9 15 9 23 0 15 83 229 107 275 8 15 22 31 31 34 9 4
28 17 41 29 19 18 33 21 75 18 28 -2 63 -6 79 -10 16 -3 27 -1 27 5 0 6 -12
11 -27 11 l-27 0 26 28 c14 15 31 51 39 82 7 30 25 73 41 94 22 32 26 46 22
80 -4 31 1 51 18 81 32 54 88 68 164 41z m6226 -11 c0 -5 -5 -11 -11 -13 -6
-2 -11 4 -11 13 0 9 5 15 11 13 6 -2 11 -8 11 -13z m-5514 -198 c41 -28 70
-53 65 -54 -6 -2 -46 8 -89 23 -43 14 -85 28 -94 30 -136 31 -220 67 -220 95
0 5 17 20 37 33 l37 25 95 -50 c52 -28 128 -74 169 -102z m5329 127 c3 -8 -2
-23 -11 -32 -14 -15 -18 -15 -26 -3 -10 16 4 51 21 51 5 0 12 -7 16 -16z
m-1951 -59 c11 -28 12 -44 4 -75 -14 -51 -34 -70 -74 -70 -64 0 -73 45 -26
128 24 41 36 52 56 52 19 0 28 -8 40 -35z m1109 -44 l80 -27 -1 -35 c-2 -57
-13 -87 -35 -94 -21 -7 -154 29 -176 47 -13 11 -19 129 -7 141 9 8 37 2 139
-32z m-6465 -21 c0 -5 -4 -10 -10 -10 -5 0 -10 5 -10 10 0 6 5 10 10 10 6 0
10 -4 10 -10z m184 -26 c9 -24 7 -27 -9 -10 -17 17 -19 26 -6 26 5 0 12 -7 15
-16z m-194 -4 c0 -5 -5 -10 -11 -10 -5 0 -7 5 -4 10 3 6 8 10 11 10 2 0 4 -4
4 -10z m12 -75 c2 -19 0 -35 -4 -35 -4 0 -8 -4 -8 -10 0 -5 6 -7 14 -4 9 4 14
-3 14 -20 0 -14 -4 -26 -9 -26 -5 0 -9 6 -9 14 0 8 -7 17 -16 20 -11 4 -13 10
-7 19 5 6 8 29 7 49 -1 46 12 41 18 -7z m-48 20 c-4 -8 -1 -15 5 -15 6 0 11
-10 11 -22 0 -21 -1 -21 -15 6 -8 15 -12 32 -9 37 9 14 14 10 8 -6z m7163 -37
c10 -34 33 -151 33 -165 0 -2 -10 -3 -22 -3 -36 0 -62 73 -53 150 8 71 26 78
42 18z m-1986 9 c-13 -13 -26 -3 -16 12 3 6 11 8 17 5 6 -4 6 -10 -1 -17z
m-61 3 c-18 -12 -30 -13 -30 -2 0 4 10 9 22 9 18 2 20 0 8 -7z m47 -42 c-3 -8
-6 -5 -6 6 -1 11 2 17 5 13 3 -3 4 -12 1 -19z m-4217 -7 c0 -14 -23 -29 -36
-24 -17 6 -18 30 -1 36 14 5 37 -2 37 -12z m2986 -32 c16 -31 25 -70 28 -119
1 -19 -7 -29 -33 -42 -43 -21 -56 -16 -80 35 -38 80 -37 89 11 124 24 18 46
32 50 33 4 0 15 -14 24 -31z m3563 29 c-2 -2 -17 -14 -34 -28 l-30 -25 24 28
c14 15 29 27 34 27 6 0 8 -1 6 -2z m-7459 -28 c0 -5 -2 -10 -4 -10 -3 0 -8 5
-11 10 -3 6 -1 10 4 10 6 0 11 -4 11 -10z m7310 -5 c-7 -8 -17 -15 -23 -15 -6
0 -2 7 9 15 25 19 30 19 14 0z m-7330 -39 c-7 -7 -15 -5 -22 3 -10 11 -10 13
0 7 7 -5 12 -1 12 11 0 15 2 16 10 3 6 -9 6 -18 0 -24z m7810 -8 c24 -14 30
-23 21 -26 -8 -3 -17 0 -19 7 -2 6 -10 11 -18 11 -8 0 -14 5 -14 11 0 6 -7 9
-15 5 -8 -3 -15 -1 -15 4 0 16 22 11 60 -12z m-2830 8 c0 -3 -4 -8 -10 -11 -5
-3 -10 -1 -10 4 0 6 5 11 10 11 6 0 10 -2 10 -4z m2890 -45 c0 -5 -7 -11 -15
-15 -15 -5 -20 5 -8 17 9 10 23 9 23 -2z m-6328 -79 c10 -8 15 -19 12 -23 -3
-5 1 -6 8 -4 8 3 27 -8 43 -25 26 -27 27 -30 9 -31 -10 -1 -22 -1 -26 0 -5 0
-8 -3 -8 -8 0 -5 -27 -25 -61 -45 -33 -20 -57 -31 -54 -26 13 21 -11 9 -29
-15 -10 -14 -24 -25 -30 -25 -6 0 -4 5 4 11 13 9 13 10 0 6 -8 -2 -15 -9 -15
-15 0 -20 -14 -25 -32 -11 -15 11 -16 11 -5 -1 20 -23 14 -33 -15 -26 -20 5
-24 4 -13 -3 15 -10 17 -9 -36 -26 -9 -3 -12 -10 -8 -17 4 -7 -6 0 -21 15 -16
16 -31 24 -33 18 -2 -6 -7 -11 -12 -11 -10 0 57 155 96 221 21 36 38 51 83 71
l56 25 35 -20 c19 -11 43 -27 52 -35z m6388 54 c0 -3 -4 -8 -10 -11 -5 -3 -10
-1 -10 4 0 6 5 11 10 11 6 0 10 -2 10 -4z m-5173 -37 c13 -15 23 -30 23 -34 0
-4 7 -22 16 -40 21 -45 6 -75 -37 -75 -16 0 -42 -6 -57 -13 -36 -18 -74 -7
-90 26 -14 29 -7 52 29 91 11 11 19 23 19 28 0 16 41 49 58 46 9 -2 27 -15 39
-29z m-2787 -3 c14 -18 14 -18 -7 -6 -12 8 -19 18 -16 23 3 4 6 7 7 5 1 -2 8
-12 16 -22z m230 -3 c10 9 11 9 6 -1 -4 -7 -22 -19 -39 -27 -18 -9 -24 -13
-14 -10 23 6 48 -4 41 -17 -4 -6 -10 -5 -15 3 -7 11 -9 11 -9 1 0 -7 6 -15 13
-17 14 -6 11 -105 -4 -105 -5 0 -9 10 -9 23 0 17 -2 19 -9 8 -8 -12 -12 -12
-26 3 -10 9 -24 15 -32 12 -8 -4 -11 -1 -7 5 4 8 -1 9 -17 4 -22 -7 -22 -7 -6
9 16 16 18 16 33 1 9 -9 19 -13 22 -10 3 3 0 11 -6 17 -7 7 -12 17 -12 22 0 6
5 5 11 -1 12 -12 39 -7 39 8 0 4 -6 6 -13 3 -17 -6 -16 31 0 47 6 6 9 19 6 28
-6 14 -4 14 13 -1 16 -14 23 -15 34 -5z m4690 -23 c0 -5 -2 -10 -4 -10 -3 0
-8 5 -11 10 -3 6 -1 10 4 10 6 0 11 -4 11 -10z m-16 -67 c12 -36 -2 -27 -19
13 -8 20 -15 39 -15 42 0 12 27 -33 34 -55z m-4770 33 c-10 -8 -21 -12 -24
-10 -5 6 21 24 34 24 6 0 1 -6 -10 -14z m4683 -8 c-3 -8 -6 -5 -6 6 -1 11 2
17 5 13 3 -3 4 -12 1 -19z m116 -3 c-3 -9 -8 -14 -10 -11 -3 3 -2 9 2 15 9 16
15 13 8 -4z m18 -12 c-12 -20 -14 -14 -5 12 4 9 9 14 11 11 3 -2 0 -13 -6 -23z
m-4866 -3 c3 -6 -1 -7 -9 -4 -18 7 -21 14 -7 14 6 0 13 -4 16 -10z m4895 -20
c0 -5 -5 -10 -11 -10 -5 0 -7 5 -4 10 3 6 8 10 11 10 2 0 4 -4 4 -10z m2317
-22 c-3 -8 -6 -5 -6 6 -1 11 2 17 5 13 3 -3 4 -12 1 -19z m-2385 -23 c6 -29
-7 -34 -15 -6 -4 17 0 31 9 31 1 0 4 -11 6 -25z m41 7 c-10 -10 -20 -17 -22
-16 -6 5 20 34 30 34 5 0 1 -8 -8 -18z m2857 -2 c0 -5 -4 -10 -10 -10 -5 0
-10 5 -10 10 0 6 5 10 10 10 6 0 10 -4 10 -10z m114 1 c4 -5 -3 -7 -14 -4 -23
6 -26 13 -6 13 8 0 17 -4 20 -9z m-2939 -11 c3 -5 1 -10 -4 -10 -6 0 -11 5
-11 10 0 6 2 10 4 10 3 0 8 -4 11 -10z m525 -36 c0 -32 -25 -61 -34 -39 -3 8
-1 15 4 15 5 0 6 7 3 17 -4 11 -3 14 5 9 8 -5 10 -2 6 8 -3 9 -1 16 5 16 6 0
11 -12 11 -26z m80 2 c0 -14 -5 -28 -12 -32 -8 -5 -9 -2 -4 11 5 15 4 16 -9 5
-14 -12 -15 -11 -4 13 15 34 29 35 29 3z m2820 -21 c23 -19 47 -32 52 -28 7 3
8 1 4 -5 -4 -7 -2 -12 5 -12 7 0 10 -3 6 -6 -5 -5 -63 29 -77 46 -3 3 -16 14
-30 23 -13 9 -19 17 -13 17 6 0 30 -16 53 -35z m-3544 -4 c-10 -11 -15 -25
-11 -33 6 -10 5 -10 -5 -1 -11 10 -10 17 4 38 10 15 20 24 23 21 4 -3 -2 -15
-11 -25z m105 12 c10 -12 10 -15 1 -9 -7 4 -19 0 -28 -8 -18 -18 -44 -21 -44
-5 0 6 7 9 15 5 9 -3 20 3 27 14 15 24 13 24 29 3z m-817 -39 c3 -8 2 -12 -4
-9 -6 3 -10 10 -10 16 0 14 7 11 14 -7z m797 -12 c-9 -3 -8 -9 5 -23 17 -19
11 -24 -23 -20 -7 1 -13 -3 -13 -8 0 -6 20 -9 50 -7 28 2 52 0 55 -4 3 -4 -14
-8 -36 -8 -50 -1 -58 -7 -37 -29 16 -15 19 -15 42 0 16 11 27 13 31 6 4 -6 4
-13 1 -16 -3 -4 -6 0 -6 8 -1 8 -7 3 -15 -11 -16 -29 -21 -95 -5 -70 15 23 12
3 -13 -89 l-23 -84 -22 37 c-12 20 -37 44 -57 53 -19 9 -35 23 -35 30 0 7 -5
13 -11 13 -6 0 -9 -7 -5 -15 3 -9 0 -15 -8 -15 -12 0 -30 34 -27 53 1 4 -3 7
-8 7 -4 0 -1 25 8 55 13 44 19 54 34 49 10 -3 17 0 17 7 0 7 7 4 15 -7 15 -18
16 -17 10 16 -5 25 -3 31 4 20 9 -13 12 -12 25 5 18 25 10 38 -17 31 -19 -5
-19 -4 -3 12 13 13 18 14 25 4 6 -10 10 -10 21 2 7 9 17 13 23 9 8 -5 7 -8 -2
-11z m450 8 c35 -19 19 -91 -20 -90 -22 1 -56 28 -47 37 4 4 12 -1 18 -11 8
-15 12 -16 19 -5 14 22 11 32 -7 25 -13 -5 -15 -2 -11 16 6 22 5 22 -8 4 -8
-11 -15 -15 -15 -9 0 14 28 43 41 43 6 0 19 -5 30 -10z m209 -7 c0 -22 -45
-111 -53 -106 -6 3 -7 1 -4 -5 9 -13 -2 -42 -14 -42 -20 0 14 128 39 148 18
13 32 16 32 5z m-766 -46 c-3 -15 -10 -24 -16 -21 -5 3 -4 11 3 20 6 7 8 22 5
31 -5 13 -4 15 4 7 6 -6 8 -22 4 -37z m163 28 c0 -17 -13 -20 -21 -6 -4 5 0
12 6 14 7 3 13 6 14 6 0 1 1 -6 1 -14z m-4547 -75 c8 -5 11 -10 5 -10 -5 0
-17 5 -25 10 -8 5 -10 10 -5 10 6 0 17 -5 25 -10z m74 -16 c18 -26 18 -26 -3
-15 -12 7 -26 9 -31 6 -11 -7 -14 18 -3 28 11 11 17 8 37 -19z m4478 -46 c-8
-8 -9 -4 -5 13 4 13 8 18 11 10 2 -7 -1 -18 -6 -23z m-4665 -54 c-3 -3 -12 -4
-19 -1 -8 3 -5 6 6 6 11 1 17 -2 13 -5z m-587 -39 c-7 -8 -18 -15 -24 -15 -6
0 -2 7 8 15 25 19 32 19 16 0z m60 1 c0 -3 -4 -8 -10 -11 -5 -3 -10 -1 -10 4
0 6 5 11 10 11 6 0 10 -2 10 -4z m5060 -39 c14 -7 24 -21 24 -30 -1 -9 3 -15
9 -14 6 1 17 -16 24 -37 11 -31 11 -51 3 -92 -12 -57 -30 -71 -75 -60 -18 5
-23 13 -23 34 1 33 -17 70 -45 92 -22 18 -27 82 -8 88 6 2 11 10 11 18 0 18
46 18 80 1z m-5076 -15 c-7 -4 -14 -18 -17 -32 -4 -21 -4 -20 -6 8 -1 24 3 32
17 32 11 0 13 -3 6 -8z m756 -242 c0 -5 -5 -10 -11 -10 -5 0 -7 5 -4 10 3 6 8
10 11 10 2 0 4 -4 4 -10z m-20 -24 c0 -3 -4 -8 -10 -11 -5 -3 -10 -1 -10 4 0
6 5 11 10 11 6 0 10 -2 10 -4z m4485 -147 c3 -5 -1 -6 -10 -3 -11 5 -14 2 -9
-10 3 -9 11 -13 17 -9 6 3 7 1 3 -5 -4 -7 -1 -12 9 -12 12 0 15 6 10 20 -7 23
6 26 54 9 25 -9 29 -14 20 -25 -9 -11 -8 -14 2 -14 11 0 11 -2 -1 -10 -8 -5
-23 -7 -32 -4 -10 3 -18 1 -18 -5 0 -11 9 -14 45 -13 17 1 17 0 3 -4 -21 -6
-24 -24 -5 -25 9 0 9 -2 0 -5 -6 -3 -20 3 -31 13 -10 10 -27 23 -38 30 -10 7
-12 10 -4 8 9 -3 20 5 27 20 6 14 8 25 3 25 -4 0 -10 -7 -14 -15 -3 -8 -15
-15 -26 -15 -14 0 -19 -4 -14 -12 4 -7 3 -8 -4 -4 -6 4 -8 14 -5 23 5 12 3 14
-7 8 -10 -6 -12 -4 -7 8 5 13 1 17 -16 17 -14 0 -18 3 -10 8 18 11 52 12 58 1z
m-69 -46 c-10 -10 -19 5 -10 18 6 11 8 11 12 0 2 -7 1 -15 -2 -18z m211 1 c-3
-3 -12 -4 -19 -1 -8 3 -5 6 6 6 11 1 17 -2 13 -5z m0 -20 c-3 -3 -12 -4 -19
-1 -8 3 -5 6 6 6 11 1 17 -2 13 -5z m72 -40 c-6 -8 -14 -14 -16 -14 -3 0 0 7
7 15 10 12 10 15 -3 15 -8 0 -17 7 -21 15 -5 13 -2 13 19 -1 20 -13 23 -20 14
-30z m-234 16 c-3 -5 -1 -10 6 -10 7 0 10 -2 7 -5 -3 -3 -13 -2 -22 1 -14 5
-15 9 -4 15 17 11 20 11 13 -1z m55 -12 c0 -5 5 -6 12 -2 8 5 9 2 5 -9 -4 -12
-1 -17 11 -17 13 0 14 -2 3 -9 -9 -6 -22 1 -42 22 -34 36 -35 37 -9 30 11 -3
20 -10 20 -15z m145 -8 c3 -5 1 -10 -4 -10 -6 0 -11 5 -11 10 0 6 2 10 4 10 3
0 8 -4 11 -10z m58 -18 c-2 -10 -15 -19 -29 -20 -15 -1 -23 2 -19 8 4 6 10 8
15 5 4 -3 13 2 20 10 16 20 19 19 13 -3z m-51 -49 c-2 -7 1 -13 7 -13 6 0 8
-7 4 -16 -5 -13 -7 -13 -14 -2 -5 7 -9 9 -9 5 0 -4 -9 -3 -20 3 -21 11 -28 40
-9 40 5 0 7 -4 4 -10 -3 -5 -1 -10 4 -10 14 0 14 17 1 25 -6 4 -8 11 -4 16 8
14 42 -22 36 -38z m78 37 c0 -5 -5 -10 -11 -10 -5 0 -7 -5 -3 -11 4 -8 9 -7
16 2 8 11 11 11 15 1 2 -7 11 -19 19 -26 16 -17 18 -26 5 -26 -5 0 -13 9 -16
21 -4 12 -12 18 -21 15 -8 -3 -21 -3 -29 0 -11 5 -12 10 -2 25 13 20 27 25 27
9z m-160 -30 c-8 -5 -19 -10 -25 -10 -5 0 -3 5 5 10 8 5 20 10 25 10 6 0 3 -5
-5 -10z m149 -24 c9 -11 6 -12 -15 -8 -19 3 -22 7 -12 13 16 11 14 11 27 -5z
m-249 -16 c0 -5 -7 -7 -15 -4 -8 4 -15 8 -15 10 0 2 7 4 15 4 8 0 15 -4 15
-10z m56 -16 c-4 -9 -9 -15 -11 -12 -3 3 -3 13 1 22 4 9 9 15 11 12 3 -3 3
-13 -1 -22z m229 -10 c-16 -17 -35 -18 -35 -3 0 5 5 7 10 4 6 -3 10 4 10 16 0
18 3 19 15 9 12 -10 12 -14 0 -26z m-335 22 c0 -3 -4 -8 -10 -11 -5 -3 -10 -1
-10 4 0 6 5 11 10 11 6 0 10 -2 10 -4z m-32 -27 c3 -11 2 -12 -6 -1 -8 12 -15
11 -41 -2 -17 -9 -29 -21 -26 -26 4 -6 -1 -10 -9 -10 -24 0 -8 25 27 43 36 18
49 17 55 -4z m104 -15 c-8 -14 -9 -13 -9 10 0 18 3 24 9 18 7 -7 7 -16 0 -28z
m285 -6 c2 -17 0 -19 -7 -8 -5 8 -6 18 -4 22 8 12 10 10 11 -14z m-242 -8 c3
-5 1 -10 -4 -10 -6 0 -11 5 -11 10 0 6 2 10 4 10 3 0 8 -4 11 -10z m-70 -10
c-3 -5 -12 -10 -18 -10 -7 0 -6 4 3 10 19 12 23 12 15 0z m-100 -10 c3 -5 -9
-16 -27 -25 -29 -14 -30 -14 -14 0 11 8 25 15 30 15 6 0 4 5 -4 10 -9 6 -10
10 -3 10 6 0 14 -4 18 -10z m144 -4 c10 -12 8 -13 -8 -9 -12 3 -21 9 -21 14 0
14 16 11 29 -5z m196 -4 c-3 -3 -11 0 -18 7 -9 10 -8 11 6 5 10 -3 15 -9 12
-12z m-35 4 c0 -3 -4 -8 -10 -11 -5 -3 -10 -1 -10 4 0 6 5 11 10 11 6 0 10 -2
10 -4z m108 -78 c0 -46 -3 -68 -5 -50 -2 18 -9 30 -14 27 -5 -4 -9 -1 -9 4 0
6 5 11 10 11 15 0 12 77 -2 83 -8 3 -6 6 5 6 15 1 17 -9 15 -81z m-113 42 c3
-5 1 -10 -4 -10 -6 0 -11 5 -11 10 0 6 2 10 4 10 3 0 8 -4 11 -10z m-50 -48
c-6 -7 -34 11 -29 19 3 5 11 3 19 -4 7 -6 12 -13 10 -15z m45 9 c0 -5 -7 -12
-16 -15 -14 -5 -15 -4 -4 9 14 17 20 19 20 6z m-55 -31 c-3 -5 -11 -10 -16
-10 -6 0 -7 5 -4 10 3 6 11 10 16 10 6 0 7 -4 4 -10z m-65 -20 c0 -5 -5 -10
-11 -10 -5 0 -7 5 -4 10 3 6 8 10 11 10 2 0 4 -4 4 -10z m40 -10 c0 -5 -7 -10
-16 -10 -8 0 -12 5 -9 10 3 6 10 10 16 10 5 0 9 -4 9 -10z m95 -26 c0 -10 4
-25 8 -31 5 -9 3 -13 -7 -13 -8 0 -20 -2 -28 -3 -7 -2 -10 -2 -7 0 3 2 5 14 4
26 -1 12 0 14 2 5 2 -10 8 -18 12 -18 10 0 8 31 -3 49 -6 9 -5 12 5 9 8 -3 14
-13 14 -24z m-148 0 c-3 -3 -12 -4 -19 -1 -8 3 -5 6 6 6 11 1 17 -2 13 -5z
m230 -9 c0 -16 -43 -32 -54 -21 -4 3 4 6 16 6 12 0 20 4 17 9 -4 5 0 12 6 14
7 3 13 6 14 6 0 1 1 -6 1 -14z m-189 -20 c-3 -3 -9 2 -12 12 -6 14 -5 15 5 6
7 -7 10 -15 7 -18z m-13 -25 c-3 -5 -12 -10 -18 -10 -7 0 -6 4 3 10 19 12 23
12 15 0z m62 -6 c-3 -3 -12 -4 -19 -1 -8 3 -5 6 6 6 11 1 17 -2 13 -5z m-152
-42 c-3 -3 -11 0 -18 7 -9 10 -8 11 6 5 10 -3 15 -9 12 -12z m42 12 c-3 -3
-12 -4 -19 -1 -8 3 -5 6 6 6 11 1 17 -2 13 -5z m3228 -64 c3 -5 1 -10 -4 -10
-6 0 -11 5 -11 10 0 6 2 10 4 10 3 0 8 -4 11 -10z m145 -20 c0 -5 -2 -10 -4
-10 -3 0 -8 5 -11 10 -3 6 -1 10 4 10 6 0 11 -4 11 -10z m-72 -25 c-10 -10
-68 -14 -63 -4 4 5 20 9 37 9 17 0 29 -2 26 -5z m-68 -135 c0 -5 -10 -10 -22
-10 -19 0 -20 2 -8 10 19 13 30 13 30 0z m66 -20 c8 0 12 5 9 10 -3 6 -2 10 4
10 5 0 13 -4 16 -10 3 -5 2 -10 -4 -10 -6 0 -8 -8 -5 -17 4 -11 3 -14 -3 -7
-4 7 -17 13 -28 15 -11 3 -21 13 -23 24 -2 18 -2 19 8 3 6 -10 18 -18 26 -18z
m-1 -50 c-3 -5 -12 -10 -18 -10 -7 0 -6 4 3 10 19 12 23 12 15 0z"/>
<path d="M5660 4586 c0 -2 7 -7 16 -10 8 -3 12 -2 9 4 -6 10 -25 14 -25 6z"/>
<path d="M5508 4373 c-14 -2 -32 -11 -40 -20 -11 -14 -10 -15 12 -7 43 16 132
9 183 -14 26 -11 47 -19 47 -16 0 3 -24 16 -52 29 -57 26 -108 35 -150 28z"/>
<path d="M5482 4272 c-42 -35 -41 -49 1 -23 19 11 36 18 40 15 3 -3 -4 -26
-15 -51 -11 -24 -18 -47 -15 -49 2 -3 21 5 41 17 35 21 37 21 93 3 91 -29 210
-131 295 -253 25 -35 31 -21 15 28 -37 107 -172 250 -288 306 -88 42 -123 44
-167 7z"/>
<path d="M5561 4133 c-15 -54 -13 -111 5 -174 17 -58 68 -165 88 -185 7 -6 24
-26 38 -42 19 -23 31 -29 47 -25 19 5 21 10 15 57 -11 94 -32 183 -59 252 -33
83 -44 97 -51 66 -4 -12 -10 -22 -14 -22 -15 0 -20 31 -8 50 10 16 9 23 -9 40
-31 28 -41 25 -52 -17z"/>
<path d="M7013 4063 c3 -15 -1 -23 -15 -26 -17 -5 -17 -3 -6 11 12 15 11 16
-5 3 -10 -8 -15 -21 -12 -29 4 -10 0 -12 -11 -8 -12 4 -15 2 -10 -9 3 -8 0
-14 -6 -12 -6 1 -24 -20 -40 -47 l-29 -48 19 -52 c22 -59 20 -70 -21 -114 -67
-70 29 -64 104 7 31 31 39 45 39 74 0 49 -16 80 -51 101 -16 9 -29 22 -29 28
0 5 20 31 45 56 49 50 50 50 34 72 -9 12 -10 11 -6 -7z"/>
<path d="M5375 3361 c6 -5 24 -13 40 -17 39 -9 30 0 -15 15 -19 6 -30 7 -25 2z"/>
<path d="M1116 3403 c-6 -14 -5 -15 5 -6 7 7 10 15 7 18 -3 3 -9 -2 -12 -12z"/>
<path d="M5003 1349 c-5 -5 -39 -16 -74 -24 -71 -14 -134 -47 -150 -76 -25
-48 19 -46 120 4 69 35 157 106 131 107 -9 0 -21 -5 -27 -11z"/>
<path d="M5115 1100 c3 -5 8 -10 11 -10 2 0 4 5 4 10 0 6 -5 10 -11 10 -5 0
-7 -4 -4 -10z"/>
<path d="M5080 1080 c0 -5 5 -10 10 -10 6 0 10 5 10 10 0 6 -4 10 -10 10 -5 0
-10 -4 -10 -10z"/>
<path d="M4947 1054 c-50 -25 -69 -51 -47 -64 19 -12 45 -1 86 36 27 26 39 31
45 22 5 -8 8 -5 6 10 -2 29 -27 27 -90 -4z"/>
<path d="M5019 1012 c-14 -6 -14 -9 -4 -19 10 -9 14 -8 18 8 3 10 4 19 4 18
-1 0 -9 -3 -18 -7z"/>
<path d="M5090 1016 c0 -2 8 -10 18 -17 15 -13 16 -12 3 4 -13 16 -21 21 -21
13z"/>
<path d="M4970 980 c-13 -8 -12 -10 3 -10 9 0 17 5 17 10 0 12 -1 12 -20 0z"/>
<path d="M5045 959 c-4 -6 -5 -12 -2 -15 2 -3 7 2 10 11 7 17 1 20 -8 4z"/>
<path d="M4966 938 c3 -4 11 -5 19 -1 21 7 19 12 -4 10 -11 0 -18 -5 -15 -9z"/>
<path d="M5005 927 c-4 -10 -5 -21 -1 -24 3 -4 6 -1 6 6 0 7 4 10 9 6 5 -3 13
0 17 6 4 7 3 9 -4 5 -5 -3 -12 0 -15 6 -3 9 -7 7 -12 -5z"/>
<path d="M4850 872 c8 -2 20 -9 26 -13 7 -6 16 -4 22 4 9 10 4 13 -26 14 -20
0 -30 -2 -22 -5z"/>
<path d="M4920 865 c-7 -9 -8 -15 -2 -15 5 0 12 7 16 15 3 8 4 15 2 15 -2 0
-9 -7 -16 -15z"/>
<path d="M5390 2396 c0 -2 7 -7 16 -10 8 -3 12 -2 9 4 -6 10 -25 14 -25 6z"/>
<path d="M416 2301 c-4 -7 -5 -15 -2 -18 9 -9 19 4 14 18 -4 11 -6 11 -12 0z"/>
<path d="M450 2289 c0 -5 5 -7 10 -4 6 3 10 8 10 11 0 2 -4 4 -10 4 -5 0 -10
-5 -10 -11z"/>
<path d="M1590 2360 c8 -5 26 -9 40 -9 l25 1 -25 8 c-14 4 -32 8 -40 9 -13 1
-13 0 0 -9z"/>
<path d="M1668 2343 c6 -2 18 -2 25 0 6 3 1 5 -13 5 -14 0 -19 -2 -12 -5z"/>
<path d="M1710 2341 c0 -8 119 -36 125 -29 3 2 -25 11 -60 20 -36 8 -65 12
-65 9z"/>
<path d="M2211 2211 c-8 -5 -11 -17 -7 -28 8 -25 183 -199 196 -196 6 2 10 -1
10 -6 0 -19 64 -1 92 26 52 50 37 74 -64 107 -26 9 -56 20 -65 24 -58 29 -90
48 -107 64 -22 20 -34 22 -55 9z"/>
<path d="M1037 1667 c-31 -29 -50 -82 -34 -95 19 -15 46 -6 73 25 29 34 31 64
4 80 -16 11 -23 9 -43 -10z"/>
<path d="M1866 1899 c21 -23 21 -23 21 -5 0 8 -9 17 -20 20 -18 4 -18 4 -1
-15z"/>
<path d="M5245 1730 c3 -5 11 -10 16 -10 6 0 7 5 4 10 -3 6 -11 10 -16 10 -6
0 -7 -4 -4 -10z"/>
<path d="M5180 1626 c0 -2 7 -6 15 -10 8 -3 15 -1 15 4 0 6 -7 10 -15 10 -8 0
-15 -2 -15 -4z"/>
<path d="M5225 1620 c-3 -5 1 -10 9 -10 9 0 16 5 16 10 0 6 -4 10 -9 10 -6 0
-13 -4 -16 -10z"/>
<path d="M5270 1608 c0 -19 2 -20 10 -8 13 19 13 30 0 30 -5 0 -10 -10 -10
-22z"/>
<path d="M5215 1540 c-3 -5 1 -10 10 -10 9 0 13 5 10 10 -3 6 -8 10 -10 10 -2
0 -7 -4 -10 -10z"/>
<path d="M5205 1500 c3 -5 11 -10 16 -10 6 0 7 5 4 10 -3 6 -11 10 -16 10 -6
0 -7 -4 -4 -10z"/>
<path d="M5268 1488 c5 -5 16 -8 23 -6 8 3 3 7 -10 11 -17 4 -21 3 -13 -5z"/>
<path d="M5266 1457 c3 -10 9 -15 12 -12 3 3 0 11 -7 18 -10 9 -11 8 -5 -6z"/>
<path d="M5710 1698 c-12 -22 -12 -22 6 -6 10 10 15 20 12 24 -4 3 -12 -5 -18
-18z"/>
<path d="M5230 1289 c0 -5 5 -7 10 -4 6 3 10 8 10 11 0 2 -4 4 -10 4 -5 0 -10
-5 -10 -11z"/>
<path d="M5186 1278 c3 -4 12 -8 20 -8 8 0 14 4 14 8 0 4 -9 8 -19 8 -11 0
-17 -4 -15 -8z"/>
<path d="M5225 1260 c-4 -6 -11 -8 -16 -5 -5 4 -9 1 -9 -4 0 -17 27 -13 34 4
6 17 0 20 -9 5z"/>
<path d="M5407 1006 c-6 -14 0 -26 13 -26 3 0 6 9 7 20 2 23 -12 27 -20 6z"/>
<path d="M5387 7793 c-13 -12 -7 -21 11 -18 9 2 21 4 25 4 5 1 5 6 2 11 -7 11
-28 13 -38 3z"/>
<path d="M3718 7686 c-10 -8 -15 -20 -12 -33 4 -13 0 -22 -10 -26 -9 -4 -16
-12 -16 -19 0 -7 12 0 25 15 14 16 30 25 35 22 6 -3 10 -2 10 3 0 6 -8 13 -17
16 -15 6 -15 8 -3 16 8 5 12 11 10 14 -3 2 -13 -1 -22 -8z"/>
<path d="M3880 7653 c0 -4 5 -15 10 -23 8 -13 10 -13 10 2 0 9 -4 20 -10 23
-5 3 -10 3 -10 -2z"/>
<path d="M3900 7580 c-9 -6 -10 -10 -3 -10 6 0 15 5 18 10 8 12 4 12 -15 0z"/>
<path d="M3798 7563 c7 -3 16 -2 19 1 4 3 -2 6 -13 5 -11 0 -14 -3 -6 -6z"/>
<path d="M3878 7553 c6 -2 18 -2 25 0 6 3 1 5 -13 5 -14 0 -19 -2 -12 -5z"/>
<path d="M2430 7321 c0 -10 19 -25 25 -20 1 2 -3 10 -11 17 -8 7 -14 8 -14 3z"/>
<path d="M5302 7088 c-14 -14 -16 -35 -3 -42 12 -8 114 15 122 27 4 5 9 -3 13
-18 6 -22 11 -26 38 -23 43 4 46 24 6 48 -38 23 -155 29 -176 8z"/>
<path d="M5364 7019 c-3 -6 -1 -15 7 -19 14 -9 49 5 49 20 0 14 -47 13 -56 -1z"/>
<path d="M6762 6883 c-10 -4 -10 -8 -1 -19 16 -20 29 -17 29 6 0 20 -5 23 -28
13z"/>
<path d="M4906 6368 c-9 -12 -16 -28 -16 -35 0 -8 -13 -13 -34 -13 -61 0 -67
-32 -19 -98 24 -32 26 -33 44 -16 10 9 19 25 19 36 0 22 13 23 45 2 18 -12 28
-13 45 -4 19 10 19 12 4 27 -15 16 -15 18 5 34 16 13 20 24 15 44 -12 47 -81
62 -108 23z"/>
<path d="M7988 6213 c7 -3 16 -2 19 1 4 3 -2 6 -13 5 -11 0 -14 -3 -6 -6z"/>
<path d="M8707 6011 c-4 -17 -3 -21 5 -13 5 5 8 16 6 23 -3 8 -7 3 -11 -10z"/>
<path d="M8703 5941 c0 -11 5 -18 9 -15 4 3 5 11 1 19 -7 21 -12 19 -10 -4z"/>
<path d="M8650 5901 c0 -7 -5 -9 -12 -5 -7 5 -8 3 -3 -5 5 -9 10 -10 18 -2 6
6 8 14 4 18 -4 3 -7 1 -7 -6z"/>
<path d="M7991 5853 c7 -12 15 -20 18 -17 3 2 -3 12 -13 22 -17 16 -18 16 -5
-5z"/>
<path d="M8627 5864 c-3 -4 -1 -16 5 -27 9 -17 8 -19 -8 -13 -15 6 -16 4 -7
-5 6 -6 19 -9 29 -5 16 6 15 8 -2 27 -16 18 -16 19 -1 13 10 -3 17 -1 17 5 0
12 -23 15 -33 5z"/>
<path d="M8064 5788 c0 -10 1 -18 3 -18 1 0 7 8 12 18 7 13 6 19 -2 19 -7 0
-13 -9 -13 -19z"/>
<path d="M8565 5670 c3 -5 8 -10 11 -10 2 0 4 5 4 10 0 6 -5 10 -11 10 -5 0
-7 -4 -4 -10z"/>
<path d="M487 5613 c-5 -7 -19 -13 -32 -13 -17 0 -25 -6 -27 -22 -2 -13 -11
-24 -23 -26 -11 -3 -17 -1 -13 3 7 8 -27 45 -42 45 -5 0 -10 -8 -10 -19 0 -20
-27 -48 -37 -37 -3 3 2 14 11 25 11 12 14 21 7 26 -6 3 -11 0 -11 -7 0 -9 -3
-9 -10 2 -8 12 -10 12 -10 1 0 -10 -3 -11 -13 -2 -8 6 -16 9 -18 6 -6 -5 -67
-16 -102 -17 -15 -1 -27 -5 -27 -10 0 -4 -6 -8 -14 -8 -8 0 -16 -6 -19 -12 -3
-10 -7 -10 -18 -1 -11 9 -22 8 -47 -3 l-33 -13 1 -326 c1 -297 3 -325 18 -325
13 0 14 -2 4 -9 -11 -7 -11 -9 2 -14 9 -4 16 -1 16 6 1 8 5 6 13 -4 7 -8 21
-21 32 -28 15 -9 16 -11 2 -7 -9 3 -17 1 -17 -5 0 -6 9 -13 20 -16 11 -3 17
-10 13 -16 -10 -17 -11 -47 -1 -41 14 9 9 -10 -43 -157 -28 -79 -53 -160 -55
-179 -3 -19 24 48 59 150 103 296 238 624 359 867 44 89 78 170 76 180 -2 13
-6 15 -11 6z m-187 -207 c0 -13 -29 -31 -37 -23 -2 2 -1 12 3 21 8 20 34 21
34 2z m-200 -376 c0 -5 -4 -10 -10 -10 -5 0 -10 5 -10 10 0 6 5 10 10 10 6 0
10 -4 10 -10z"/>
<path d="M3252 5040 c-19 -10 -27 -22 -26 -38 2 -31 12 -39 32 -24 23 16 85
50 95 51 4 1 7 3 7 6 0 3 0 9 0 13 0 14 -78 8 -108 -8z"/>
<path d="M4118 5024 c-3 -3 -2 -19 3 -37 4 -18 11 -45 14 -61 l6 -29 31 30 30
30 35 -36 35 -36 -33 45 c-65 89 -100 116 -121 94z m62 -65 c-19 -34 -33 -34
-28 0 2 17 1 31 -4 31 -5 0 -6 5 -3 11 5 7 13 4 26 -7 14 -12 16 -21 9 -35z"/>
<path d="M3310 4982 c0 -6 -14 -15 -32 -21 -30 -11 -31 -12 -12 -26 24 -18 54
-18 77 -1 18 14 24 46 8 46 -5 0 -16 3 -25 6 -9 3 -16 2 -16 -4z"/>
<path d="M1295 4928 c-49 -26 -57 -60 -20 -84 25 -16 27 -16 50 6 l25 24 -6
-30 c-7 -39 15 -61 45 -44 23 12 61 79 61 106 0 14 -7 16 -39 11 -29 -3 -41
-1 -45 9 -6 17 -43 18 -71 2z"/>
<path d="M4487 4450 c-3 -14 -11 -74 -17 -135 -6 -60 -15 -134 -21 -163 -6
-30 -8 -56 -5 -60 11 -11 93 85 99 117 7 35 -14 165 -36 226 -14 37 -15 38
-20 15z"/>
<path d="M3900 4439 c-22 -18 -22 -19 -3 -10 12 6 25 16 28 21 9 15 3 12 -25
-11z"/>
<path d="M3827 4384 c-21 -20 -35 -39 -32 -43 4 -3 12 1 18 9 7 8 34 26 60 39
26 13 45 26 42 29 -2 3 -16 -3 -29 -12 -31 -20 -42 -21 -26 -1 21 26 7 16 -33
-21z"/>
<path d="M4134 4269 c-33 -15 -69 -38 -80 -50 -17 -19 -14 -19 21 4 61 40 124
59 170 51 31 -5 37 -3 29 6 -23 23 -78 19 -140 -11z"/>
<path d="M4178 4229 c-127 -35 -280 -257 -277 -402 0 -23 3 -35 6 -27 54 142
128 253 206 305 59 40 95 44 143 15 l33 -21 -16 32 c-8 17 -15 42 -15 55 0 37
-35 56 -80 43z"/>
<path d="M4157 4087 c-30 -34 -67 -150 -67 -212 0 -60 13 -154 29 -213 10 -35
16 -43 33 -40 29 4 46 72 56 228 10 142 3 251 -15 257 -7 3 -23 -7 -36 -20z
m-7 -102 c0 -27 -15 -41 -25 -25 -10 16 4 62 15 55 6 -3 10 -17 10 -30z"/>
<path d="M3076 3781 c-4 -7 -5 -15 -2 -18 9 -9 19 4 14 18 -4 11 -6 11 -12 0z"/>
<path d="M3097 3766 c-7 -17 1 -26 22 -26 9 0 21 -12 28 -25 10 -22 8 -29 -13
-52 -18 -19 -24 -37 -24 -70 0 -86 45 -144 122 -158 47 -9 57 8 19 36 -45 33
-55 67 -41 132 12 53 12 56 -15 91 -15 20 -32 33 -39 29 -6 -3 -8 -2 -3 2 7 8
-30 55 -44 55 -4 0 -9 -6 -12 -14z"/>
<path d="M218 3585 c-75 -15 -218 -65 -218 -77 0 -4 16 0 36 8 48 20 200 64
222 64 9 0 24 5 32 10 19 12 12 11 -72 -5z"/>
<path d="M4498 3334 c-16 -8 -28 -17 -28 -19 0 -10 16 -4 40 15 30 23 25 25
-12 4z"/>
<path d="M8757 2803 c-4 -3 -7 -11 -7 -17 0 -6 5 -5 12 2 6 6 9 14 7 17 -3 3
-9 2 -12 -2z"/>
<path d="M8830 2789 c0 -5 5 -7 10 -4 6 3 10 8 10 11 0 2 -4 4 -10 4 -5 0 -10
-5 -10 -11z"/>
<path d="M8388 2031 c18 -12 38 -21 44 -21 17 0 -22 26 -52 34 -21 6 -20 4 8
-13z"/>
<path d="M665 1590 c-3 -5 -2 -10 4 -10 5 0 13 5 16 10 3 6 2 10 -4 10 -5 0
-13 -4 -16 -10z"/>
<path d="M780 1589 c0 -5 5 -7 10 -4 6 3 10 8 10 11 0 2 -4 4 -10 4 -5 0 -10
-5 -10 -11z"/>
<path d="M815 1590 c-3 -5 -1 -10 4 -10 6 0 11 5 11 10 0 6 -2 10 -4 10 -3 0
-8 -4 -11 -10z"/>
<path d="M661 1511 c-19 -12 4 -24 30 -16 17 6 19 9 8 16 -17 11 -21 11 -38 0z"/>
<path d="M614 1494 c-18 -14 -18 -15 4 -4 12 6 22 13 22 15 0 8 -5 6 -26 -11z"/>
<path d="M132 1398 c2 -13 8 -23 13 -23 6 0 11 10 13 23 2 15 -2 22 -13 22
-11 0 -15 -7 -13 -22z"/>
<path d="M0 563 l0 -563 99 0 c104 0 101 -1 180 65 55 46 63 58 56 95 -9 46
-62 202 -90 265 -13 28 -32 79 -43 115 -12 36 -40 112 -63 170 -102 257 -125
330 -105 330 6 0 3 5 -7 11 -10 6 -16 17 -13 27 3 9 1 24 -4 32 -6 10 -10
-191 -10 -547z"/>
<path d="M8482 666 c7 -8 15 -12 17 -11 5 6 -10 25 -20 25 -5 0 -4 -6 3 -14z"/>
</g>
</svg>
